<svg xmlns="http://www.w3.org/2000/svg" xmlns:xlink="http://www.w3.org/1999/xlink" id="Capa_1" x="0px" y="0px" viewBox="0 0 800 215" style="enable-background:new 0 0 800 215;" xml:space="preserve"><style type="text/css">	.st0{fill:#FFFFFF;}</style><g>	<g>		<path class="st0" d="M200.67,0H14.33C6.41,0,0,6.41,0,14.34v186.33C0,208.59,6.41,215,14.33,215h186.34    c7.92,0,14.33-6.41,14.33-14.33V14.34C215,6.43,208.59,0,200.67,0z M182.21,80.81h-44.58l-3.16,18.25h35.49l-3.99,23.42h-35.51    l-6.18,35.19l-0.03-0.06l-29.71,0.06l-26.52-54.62l-8.26,54.62h-31.1L46.15,57.33h30.41l25.97,54.58l9.5-54.51h74.3l-4.13,23.42    H182.21z"></path>		<g>			<path class="st0" d="M276.12,185.84v2.66h-7.55v20.71h-3.16V188.5h-7.58v-2.66H276.12z"></path>			<path class="st0" d="M288.53,206.7c0.97,0,1.83-0.16,2.59-0.49c0.76-0.33,1.4-0.78,1.92-1.37c0.53-0.59,0.93-1.29,1.21-2.1     c0.28-0.82,0.42-1.71,0.42-2.69v-14.2h3.15v14.2c0,1.35-0.22,2.6-0.65,3.75c-0.43,1.15-1.04,2.15-1.84,3     c-0.79,0.84-1.77,1.49-2.92,1.97c-1.15,0.48-2.44,0.72-3.88,0.72c-1.44,0-2.73-0.24-3.88-0.72c-1.15-0.48-2.13-1.14-2.93-1.97     c-0.8-0.85-1.42-1.85-1.86-3c-0.42-1.15-0.64-2.4-0.64-3.75v-14.2h3.15v14.19c0,0.98,0.14,1.88,0.41,2.69     c0.28,0.82,0.68,1.52,1.21,2.1c0.53,0.59,1.18,1.05,1.94,1.39C286.69,206.54,287.56,206.7,288.53,206.7z"></path>			<path class="st0" d="M321.54,189.5c-0.1,0.16-0.2,0.29-0.31,0.38c-0.11,0.08-0.25,0.11-0.42,0.11c-0.18,0-0.4-0.09-0.65-0.28     c-0.24-0.18-0.55-0.39-0.93-0.6c-0.37-0.23-0.82-0.43-1.35-0.62c-0.52-0.18-1.16-0.28-1.91-0.28c-0.71,0-1.33,0.1-1.88,0.29     c-0.54,0.18-1,0.44-1.37,0.77c-0.36,0.33-0.63,0.71-0.81,1.16c-0.18,0.43-0.28,0.91-0.28,1.42c0,0.65,0.16,1.2,0.47,1.63     c0.32,0.42,0.75,0.79,1.27,1.09c0.53,0.3,1.13,0.57,1.79,0.8c0.67,0.22,1.36,0.45,2.06,0.68c0.71,0.24,1.39,0.51,2.05,0.82     c0.67,0.29,1.27,0.67,1.79,1.13c0.53,0.46,0.96,1.02,1.27,1.68c0.32,0.66,0.49,1.48,0.49,2.45c0,1.02-0.17,1.98-0.52,2.89     c-0.35,0.89-0.86,1.67-1.53,2.33c-0.66,0.66-1.48,1.18-2.46,1.57c-0.97,0.38-2.07,0.57-3.31,0.57c-1.51,0-2.89-0.27-4.14-0.82     c-1.24-0.55-2.3-1.3-3.18-2.23l0.91-1.5c0.09-0.12,0.19-0.22,0.31-0.29c0.13-0.09,0.27-0.13,0.43-0.13     c0.23,0,0.49,0.13,0.78,0.37c0.29,0.24,0.66,0.51,1.09,0.8c0.45,0.29,0.98,0.57,1.6,0.82c0.63,0.24,1.4,0.36,2.3,0.36     c0.75,0,1.42-0.1,2-0.31c0.59-0.21,1.08-0.49,1.48-0.86c0.41-0.38,0.73-0.83,0.95-1.35c0.22-0.52,0.33-1.1,0.33-1.74     c0-0.71-0.16-1.28-0.49-1.73c-0.32-0.46-0.73-0.84-1.26-1.14c-0.52-0.3-1.12-0.56-1.79-0.77c-0.66-0.22-1.35-0.43-2.05-0.65     c-0.7-0.23-1.38-0.49-2.06-0.78c-0.66-0.29-1.26-0.67-1.78-1.14c-0.52-0.47-0.95-1.05-1.27-1.74c-0.32-0.71-0.47-1.58-0.47-2.61     c0-0.83,0.16-1.63,0.47-2.4c0.33-0.77,0.8-1.46,1.4-2.05c0.61-0.6,1.36-1.08,2.25-1.43c0.9-0.36,1.93-0.54,3.1-0.54     c1.3,0,2.49,0.21,3.57,0.62c1.08,0.41,2.02,1.01,2.82,1.79L321.54,189.5z"></path>			<path class="st0" d="M348.56,197.53c0,1.75-0.28,3.36-0.83,4.83c-0.56,1.46-1.34,2.71-2.35,3.77c-1.01,1.05-2.23,1.87-3.65,2.46     c-1.41,0.58-2.98,0.86-4.7,0.86c-1.72,0-3.28-0.29-4.69-0.86c-1.41-0.59-2.63-1.41-3.64-2.46c-1.01-1.05-1.79-2.31-2.35-3.77     c-0.56-1.47-0.83-3.08-0.83-4.83c0-1.75,0.28-3.35,0.83-4.81c0.55-1.47,1.34-2.73,2.35-3.78c1.01-1.07,2.22-1.89,3.64-2.48     c1.41-0.59,2.98-0.88,4.69-0.88c1.72,0,3.28,0.29,4.7,0.88c1.42,0.59,2.64,1.41,3.65,2.48c1.01,1.05,1.79,2.32,2.35,3.78     C348.29,194.18,348.56,195.78,348.56,197.53z M345.32,197.53c0-1.43-0.19-2.72-0.59-3.86c-0.39-1.14-0.95-2.1-1.66-2.89     c-0.72-0.79-1.59-1.4-2.61-1.83c-1.02-0.42-2.16-0.64-3.42-0.64c-1.25,0-2.39,0.21-3.41,0.64s-1.9,1.03-2.63,1.83     c-0.72,0.78-1.27,1.74-1.66,2.89c-0.39,1.14-0.59,2.43-0.59,3.86s0.2,2.72,0.59,3.86c0.39,1.13,0.95,2.09,1.66,2.89     c0.73,0.78,1.6,1.39,2.63,1.81c1.02,0.41,2.16,0.62,3.41,0.62c1.26,0,2.4-0.21,3.42-0.62c1.02-0.42,1.89-1.03,2.61-1.81     c0.72-0.79,1.27-1.76,1.66-2.89C345.12,200.26,345.32,198.97,345.32,197.53z"></path>			<path class="st0" d="M369.35,204.38c0.17,0,0.33,0.07,0.47,0.21l1.24,1.35c-0.96,1.11-2.12,1.97-3.49,2.59     c-1.36,0.62-3,0.93-4.93,0.93c-1.68,0-3.21-0.29-4.58-0.86c-1.37-0.59-2.54-1.4-3.51-2.45c-0.97-1.05-1.72-2.32-2.25-3.78     c-0.53-1.47-0.8-3.08-0.8-4.84c0-1.76,0.28-3.38,0.85-4.84c0.58-1.47,1.38-2.73,2.41-3.78c1.03-1.05,2.27-1.87,3.7-2.45     c1.44-0.59,3.04-0.88,4.78-0.88c1.72,0,3.2,0.27,4.43,0.8c1.25,0.53,2.36,1.26,3.33,2.17l-1.03,1.45     c-0.08,0.11-0.16,0.2-0.26,0.28c-0.1,0.07-0.24,0.1-0.42,0.1c-0.14,0-0.29-0.05-0.46-0.15c-0.15-0.11-0.34-0.24-0.56-0.39     c-0.22-0.15-0.47-0.32-0.77-0.49c-0.29-0.17-0.64-0.34-1.04-0.49c-0.4-0.15-0.87-0.28-1.4-0.38c-0.53-0.11-1.14-0.16-1.84-0.16     c-1.25,0-2.4,0.22-3.44,0.65c-1.03,0.42-1.92,1.03-2.67,1.83c-0.75,0.79-1.34,1.76-1.76,2.9c-0.41,1.14-0.62,2.42-0.62,3.83     c0,1.46,0.21,2.76,0.62,3.9c0.42,1.14,0.99,2.11,1.71,2.9c0.73,0.78,1.59,1.38,2.58,1.79c0.99,0.41,2.05,0.62,3.2,0.62     c0.7,0,1.32-0.04,1.88-0.11c0.55-0.09,1.06-0.22,1.53-0.39c0.48-0.17,0.92-0.39,1.32-0.65c0.41-0.27,0.82-0.59,1.24-0.96     C368.99,204.46,369.17,204.38,369.35,204.38z"></path>			<path class="st0" d="M378.95,209.21h-3.16v-23.36h3.16V209.21z"></path>			<path class="st0" d="M406.91,197.53c0,1.75-0.28,3.36-0.83,4.83c-0.56,1.46-1.34,2.71-2.35,3.77c-1.01,1.05-2.23,1.87-3.65,2.46     c-1.41,0.58-2.98,0.86-4.7,0.86c-1.72,0-3.28-0.29-4.69-0.86c-1.41-0.59-2.63-1.41-3.64-2.46c-1.01-1.05-1.79-2.31-2.35-3.77     c-0.55-1.47-0.83-3.08-0.83-4.83c0-1.75,0.28-3.35,0.83-4.81c0.55-1.47,1.34-2.73,2.35-3.78c1.01-1.07,2.22-1.89,3.64-2.48     c1.41-0.59,2.98-0.88,4.69-0.88c1.72,0,3.28,0.29,4.7,0.88c1.43,0.59,2.64,1.41,3.65,2.48c1.01,1.05,1.79,2.32,2.35,3.78     C406.63,194.18,406.91,195.78,406.91,197.53z M403.66,197.53c0-1.43-0.19-2.72-0.59-3.86c-0.39-1.14-0.95-2.1-1.66-2.89     c-0.72-0.79-1.59-1.4-2.61-1.83c-1.02-0.42-2.16-0.64-3.42-0.64c-1.25,0-2.39,0.21-3.41,0.64c-1.02,0.42-1.9,1.03-2.62,1.83     c-0.72,0.78-1.27,1.74-1.66,2.89c-0.39,1.14-0.59,2.43-0.59,3.86s0.2,2.72,0.59,3.86c0.39,1.13,0.95,2.09,1.66,2.89     c0.73,0.78,1.6,1.39,2.62,1.81c1.02,0.41,2.16,0.62,3.41,0.62c1.26,0,2.4-0.21,3.42-0.62c1.02-0.42,1.89-1.03,2.61-1.81     c0.72-0.79,1.27-1.76,1.66-2.89C403.46,200.26,403.66,198.97,403.66,197.53z"></path>			<path class="st0" d="M431.92,185.84v2.58h-11.22v7.76h9.08v2.48h-9.08v7.97h11.22v2.58h-14.4v-23.36H431.92z"></path>			<path class="st0" d="M438.11,185.84c0.28,0,0.49,0.04,0.62,0.11c0.14,0.07,0.3,0.21,0.47,0.42l13.53,17.61     c-0.03-0.28-0.05-0.55-0.06-0.82c-0.01-0.27-0.02-0.53-0.02-0.78v-16.55h2.77v23.36h-1.6c-0.25,0-0.46-0.04-0.64-0.13     c-0.16-0.09-0.33-0.23-0.49-0.44l-13.52-17.59c0.02,0.27,0.04,0.54,0.05,0.8c0.01,0.26,0.01,0.5,0.01,0.72v16.65h-2.77v-23.36     H438.11z"></path>			<path class="st0" d="M469.06,185.84c0.28,0,0.49,0.04,0.62,0.11c0.14,0.07,0.3,0.21,0.47,0.42l13.53,17.61     c-0.03-0.28-0.05-0.55-0.06-0.82c-0.01-0.27-0.02-0.53-0.02-0.78v-16.55h2.77v23.36h-1.6c-0.25,0-0.46-0.04-0.64-0.13     c-0.16-0.09-0.33-0.23-0.49-0.44l-13.52-17.59c0.02,0.27,0.04,0.54,0.05,0.8c0.01,0.26,0.01,0.5,0.01,0.72v16.65h-2.77v-23.36     H469.06z"></path>			<path class="st0" d="M501.16,206.7c0.97,0,1.83-0.16,2.59-0.49c0.76-0.33,1.4-0.78,1.92-1.37c0.53-0.59,0.94-1.29,1.21-2.1     c0.28-0.82,0.42-1.71,0.42-2.69v-14.2h3.15v14.2c0,1.35-0.22,2.6-0.65,3.75c-0.42,1.15-1.04,2.15-1.84,3     c-0.79,0.84-1.76,1.49-2.92,1.97c-1.15,0.48-2.45,0.72-3.88,0.72c-1.44,0-2.73-0.24-3.88-0.72c-1.15-0.48-2.13-1.14-2.94-1.97     c-0.8-0.85-1.42-1.85-1.86-3c-0.42-1.15-0.64-2.4-0.64-3.75v-14.2h3.15v14.19c0,0.98,0.14,1.88,0.41,2.69     c0.28,0.82,0.68,1.52,1.21,2.1c0.53,0.59,1.18,1.05,1.94,1.39C499.32,206.54,500.19,206.7,501.16,206.7z"></path>			<path class="st0" d="M531.81,185.84v2.66h-7.55v20.71h-3.16V188.5h-7.58v-2.66H531.81z"></path>			<path class="st0" d="M538.61,199.46v9.75h-3.15v-23.36h6.6c1.48,0,2.75,0.15,3.83,0.46c1.08,0.29,1.96,0.72,2.66,1.29     c0.71,0.57,1.23,1.25,1.57,2.05c0.34,0.79,0.51,1.68,0.51,2.67c0,0.83-0.13,1.6-0.39,2.32c-0.26,0.72-0.64,1.36-1.14,1.94     c-0.49,0.57-1.09,1.05-1.81,1.45c-0.71,0.4-1.51,0.71-2.41,0.91c0.39,0.23,0.74,0.56,1.04,0.99l6.82,9.28h-2.8     c-0.58,0-1-0.22-1.27-0.67l-6.07-8.35c-0.18-0.26-0.39-0.45-0.6-0.55c-0.22-0.12-0.54-0.18-0.98-0.18H538.61z M538.61,197.16     h3.31c0.93,0,1.74-0.11,2.43-0.33c0.71-0.23,1.29-0.54,1.76-0.95c0.48-0.41,0.84-0.9,1.08-1.47c0.24-0.57,0.36-1.19,0.36-1.87     c0-1.39-0.46-2.44-1.39-3.15c-0.91-0.71-2.28-1.06-4.09-1.06h-3.46V197.16z"></path>			<path class="st0" d="M559.87,209.21h-3.16v-23.36h3.16V209.21z"></path>			<path class="st0" d="M582.59,204.38c0.17,0,0.33,0.07,0.47,0.21l1.24,1.35c-0.96,1.11-2.12,1.97-3.49,2.59     c-1.36,0.62-3,0.93-4.92,0.93c-1.69,0-3.21-0.29-4.58-0.86c-1.37-0.59-2.54-1.4-3.51-2.45c-0.97-1.05-1.72-2.32-2.25-3.78     c-0.53-1.47-0.8-3.08-0.8-4.84c0-1.76,0.28-3.38,0.85-4.84c0.58-1.47,1.38-2.73,2.41-3.78c1.03-1.05,2.27-1.87,3.7-2.45     c1.44-0.59,3.04-0.88,4.78-0.88c1.72,0,3.2,0.27,4.43,0.8c1.25,0.53,2.36,1.26,3.33,2.17l-1.03,1.45     c-0.08,0.11-0.16,0.2-0.26,0.28c-0.1,0.07-0.24,0.1-0.42,0.1c-0.14,0-0.29-0.05-0.46-0.15c-0.15-0.11-0.34-0.24-0.56-0.39     c-0.22-0.15-0.47-0.32-0.77-0.49c-0.29-0.17-0.64-0.34-1.04-0.49c-0.4-0.15-0.87-0.28-1.4-0.38c-0.53-0.11-1.14-0.16-1.84-0.16     c-1.25,0-2.4,0.22-3.44,0.65c-1.03,0.42-1.92,1.03-2.67,1.83c-0.75,0.79-1.34,1.76-1.76,2.9c-0.41,1.14-0.62,2.42-0.62,3.83     c0,1.46,0.21,2.76,0.62,3.9c0.42,1.14,0.99,2.11,1.71,2.9c0.73,0.78,1.59,1.38,2.58,1.79c0.99,0.41,2.05,0.62,3.2,0.62     c0.7,0,1.32-0.04,1.88-0.11c0.55-0.09,1.07-0.22,1.53-0.39c0.48-0.17,0.92-0.39,1.32-0.65c0.41-0.27,0.83-0.59,1.24-0.96     C582.23,204.46,582.41,204.38,582.59,204.38z"></path>			<path class="st0" d="M592.19,209.21h-3.16v-23.36h3.16V209.21z"></path>			<path class="st0" d="M620.14,197.53c0,1.75-0.28,3.36-0.83,4.83c-0.55,1.46-1.34,2.71-2.35,3.77c-1.01,1.05-2.23,1.87-3.65,2.46     c-1.41,0.58-2.98,0.86-4.7,0.86c-1.72,0-3.28-0.29-4.69-0.86c-1.41-0.59-2.63-1.41-3.64-2.46c-1.01-1.05-1.79-2.31-2.35-3.77     c-0.55-1.47-0.83-3.08-0.83-4.83c0-1.75,0.28-3.35,0.83-4.81c0.55-1.47,1.34-2.73,2.35-3.78c1.01-1.07,2.22-1.89,3.64-2.48     c1.41-0.59,2.98-0.88,4.69-0.88c1.72,0,3.28,0.29,4.7,0.88c1.43,0.59,2.64,1.41,3.65,2.48c1.01,1.05,1.79,2.32,2.35,3.78     C619.87,194.18,620.14,195.78,620.14,197.53z M616.9,197.53c0-1.43-0.19-2.72-0.59-3.86c-0.39-1.14-0.95-2.1-1.66-2.89     c-0.72-0.79-1.59-1.4-2.61-1.83c-1.02-0.42-2.16-0.64-3.42-0.64c-1.25,0-2.39,0.21-3.41,0.64c-1.02,0.42-1.9,1.03-2.62,1.83     c-0.72,0.78-1.27,1.74-1.66,2.89c-0.39,1.14-0.59,2.43-0.59,3.86s0.19,2.72,0.59,3.86c0.39,1.13,0.95,2.09,1.66,2.89     c0.73,0.78,1.6,1.39,2.62,1.81c1.02,0.41,2.16,0.62,3.41,0.62c1.26,0,2.4-0.21,3.42-0.62c1.02-0.42,1.89-1.03,2.61-1.81     c0.72-0.79,1.27-1.76,1.66-2.89C616.7,200.26,616.9,198.97,616.9,197.53z M614.21,180.15l-4.79,3.52     c-0.18,0.13-0.35,0.22-0.49,0.26c-0.14,0.04-0.32,0.07-0.55,0.07h-2.25l3.44-3.31c0.11-0.11,0.21-0.2,0.29-0.26     c0.1-0.07,0.19-0.12,0.29-0.16c0.1-0.04,0.21-0.07,0.33-0.08c0.12-0.02,0.27-0.03,0.46-0.03H614.21z"></path>			<path class="st0" d="M626.09,185.84c0.28,0,0.49,0.04,0.62,0.11c0.14,0.07,0.3,0.21,0.47,0.42l13.53,17.61     c-0.03-0.28-0.05-0.55-0.07-0.82c-0.01-0.27-0.01-0.53-0.01-0.78v-16.55h2.77v23.36h-1.6c-0.25,0-0.46-0.04-0.64-0.13     c-0.16-0.09-0.33-0.23-0.49-0.44l-13.52-17.59c0.02,0.27,0.04,0.54,0.05,0.8c0.01,0.26,0.02,0.5,0.02,0.72v16.65h-2.77v-23.36     H626.09z"></path>			<path class="st0" d="M658.89,200.47v8.74h-3.15v-23.36h6.9c1.48,0,2.76,0.17,3.85,0.52c1.1,0.34,2,0.82,2.72,1.45     c0.72,0.63,1.25,1.39,1.6,2.28c0.36,0.89,0.54,1.89,0.54,2.98c0,1.09-0.19,2.08-0.57,2.98c-0.38,0.9-0.94,1.68-1.68,2.33     c-0.73,0.65-1.63,1.16-2.72,1.53c-1.09,0.36-2.33,0.54-3.73,0.54H658.89z M658.89,197.96h3.75c0.9,0,1.7-0.12,2.38-0.36     c0.7-0.24,1.28-0.57,1.75-0.99c0.47-0.43,0.82-0.95,1.06-1.55c0.24-0.6,0.36-1.26,0.36-1.97c0-1.49-0.46-2.65-1.39-3.49     c-0.91-0.84-2.3-1.26-4.16-1.26h-3.75V197.96z"></path>			<path class="st0" d="M697.05,197.53c0,1.75-0.28,3.36-0.83,4.83c-0.55,1.46-1.34,2.71-2.35,3.77c-1.01,1.05-2.23,1.87-3.65,2.46     c-1.41,0.58-2.98,0.86-4.7,0.86s-3.28-0.29-4.7-0.86c-1.41-0.59-2.62-1.41-3.64-2.46c-1.01-1.05-1.79-2.31-2.35-3.77     c-0.55-1.47-0.83-3.08-0.83-4.83c0-1.75,0.28-3.35,0.83-4.81c0.56-1.47,1.34-2.73,2.35-3.78c1.01-1.07,2.22-1.89,3.64-2.48     c1.41-0.59,2.98-0.88,4.7-0.88s3.28,0.29,4.7,0.88c1.42,0.59,2.64,1.41,3.65,2.48c1.01,1.05,1.79,2.32,2.35,3.78     C696.77,194.18,697.05,195.78,697.05,197.53z M693.8,197.53c0-1.43-0.2-2.72-0.59-3.86c-0.39-1.14-0.95-2.1-1.66-2.89     c-0.72-0.79-1.59-1.4-2.61-1.83c-1.02-0.42-2.16-0.64-3.42-0.64c-1.25,0-2.39,0.21-3.41,0.64c-1.02,0.42-1.9,1.03-2.63,1.83     c-0.72,0.78-1.27,1.74-1.66,2.89c-0.39,1.14-0.59,2.43-0.59,3.86s0.2,2.72,0.59,3.86c0.39,1.13,0.95,2.09,1.66,2.89     c0.73,0.78,1.6,1.39,2.63,1.81c1.02,0.41,2.16,0.62,3.41,0.62c1.26,0,2.4-0.21,3.42-0.62c1.02-0.42,1.89-1.03,2.61-1.81     c0.72-0.79,1.27-1.76,1.66-2.89C693.61,200.26,693.8,198.97,693.8,197.53z"></path>			<path class="st0" d="M704.84,199.46v9.75h-3.15v-23.36h6.6c1.48,0,2.75,0.15,3.83,0.46c1.08,0.29,1.96,0.72,2.66,1.29     c0.71,0.57,1.23,1.25,1.57,2.05c0.34,0.79,0.5,1.68,0.5,2.67c0,0.83-0.13,1.6-0.39,2.32c-0.26,0.72-0.64,1.36-1.14,1.94     c-0.49,0.57-1.09,1.05-1.81,1.45c-0.71,0.4-1.51,0.71-2.41,0.91c0.39,0.23,0.74,0.56,1.04,0.99l6.82,9.28h-2.81     c-0.58,0-1-0.22-1.27-0.67l-6.07-8.35c-0.19-0.26-0.39-0.45-0.61-0.55c-0.22-0.12-0.54-0.18-0.98-0.18H704.84z M704.84,197.16     h3.31c0.92,0,1.73-0.11,2.43-0.33c0.71-0.23,1.29-0.54,1.76-0.95c0.48-0.41,0.84-0.9,1.08-1.47c0.24-0.57,0.36-1.19,0.36-1.87     c0-1.39-0.46-2.44-1.39-3.15c-0.91-0.71-2.28-1.06-4.09-1.06h-3.46V197.16z"></path>			<path class="st0" d="M738.06,204.38c0.17,0,0.33,0.07,0.47,0.21l1.24,1.35c-0.96,1.11-2.12,1.97-3.49,2.59     c-1.36,0.62-3,0.93-4.93,0.93c-1.68,0-3.21-0.29-4.58-0.86c-1.37-0.59-2.54-1.4-3.51-2.45c-0.97-1.05-1.72-2.32-2.25-3.78     c-0.53-1.47-0.8-3.08-0.8-4.84c0-1.76,0.28-3.38,0.85-4.84c0.58-1.47,1.38-2.73,2.41-3.78c1.03-1.05,2.27-1.87,3.7-2.45     c1.44-0.59,3.04-0.88,4.78-0.88c1.72,0,3.2,0.27,4.44,0.8c1.25,0.53,2.36,1.26,3.33,2.17l-1.03,1.45     c-0.08,0.11-0.16,0.2-0.26,0.28c-0.1,0.07-0.24,0.1-0.42,0.1c-0.14,0-0.29-0.05-0.46-0.15c-0.15-0.11-0.33-0.24-0.55-0.39     c-0.22-0.15-0.47-0.32-0.77-0.49c-0.29-0.17-0.64-0.34-1.04-0.49c-0.4-0.15-0.87-0.28-1.4-0.38c-0.53-0.11-1.15-0.16-1.84-0.16     c-1.25,0-2.4,0.22-3.44,0.65c-1.03,0.42-1.92,1.03-2.67,1.83c-0.75,0.79-1.34,1.76-1.76,2.9c-0.41,1.14-0.62,2.42-0.62,3.83     c0,1.46,0.21,2.76,0.62,3.9c0.43,1.14,1,2.11,1.71,2.9c0.73,0.78,1.59,1.38,2.58,1.79c0.99,0.41,2.05,0.62,3.2,0.62     c0.69,0,1.32-0.04,1.88-0.11c0.55-0.09,1.06-0.22,1.53-0.39c0.48-0.17,0.92-0.39,1.32-0.65c0.41-0.27,0.82-0.59,1.24-0.96     C737.7,204.46,737.88,204.38,738.06,204.38z"></path>			<path class="st0" d="M747.66,209.21h-3.16v-23.36h3.16V209.21z"></path>			<path class="st0" d="M755.54,185.84c0.28,0,0.49,0.04,0.62,0.11c0.14,0.07,0.3,0.21,0.47,0.42l13.53,17.61     c-0.03-0.28-0.05-0.55-0.07-0.82c-0.01-0.27-0.01-0.53-0.01-0.78v-16.55h2.77v23.36h-1.6c-0.25,0-0.46-0.04-0.64-0.13     c-0.16-0.09-0.32-0.23-0.49-0.44l-13.52-17.59c0.02,0.27,0.04,0.54,0.05,0.8c0.01,0.26,0.02,0.5,0.02,0.72v16.65h-2.77v-23.36     H755.54z"></path>			<path class="st0" d="M797.78,209.21h-2.45c-0.28,0-0.51-0.07-0.68-0.21c-0.17-0.14-0.3-0.32-0.39-0.54l-2.18-5.64h-10.49     l-2.18,5.64c-0.08,0.2-0.21,0.37-0.39,0.52c-0.18,0.15-0.41,0.23-0.68,0.23h-2.45l9.34-23.36h3.21L797.78,209.21z M782.47,200.54     h8.72l-3.67-9.51c-0.24-0.59-0.48-1.32-0.7-2.2c-0.12,0.45-0.24,0.86-0.36,1.24c-0.11,0.37-0.22,0.7-0.33,0.98L782.47,200.54z"></path>		</g>		<path class="st0" d="M319.2,149.69h-17.39v-40.24c0-4.86-0.25-13.08-11.3-13.08c-7.7,0-13.66,5.23-13.66,15.32v38h-17.39V83.41    h16.64v9.72h0.25c2.36-3.99,7.33-11.46,19.87-11.46c12.54,0,22.97,7.6,22.97,22.17V149.69z"></path>		<path class="st0" d="M387.5,149.69h-16.64v-9.34h-0.25c-3.98,7.1-10.93,11.09-20.12,11.09c-13.04,0-22.48-7.47-22.48-24.42v-43.6    h17.39v41.11c0,10.22,5.96,12.21,11.3,12.21c5.71,0,13.41-3.24,13.41-15.07V83.41h17.39V149.69z"></path>		<path class="st0" d="M417.04,83.41h10.8v12.46h-10.8v36c0,3.86,0.12,5.36,7.2,5.36c1.12,0,2.36-0.12,3.6-0.25v13.21    c-2.73,0.12-5.46,0.25-8.2,0.25h-2.24c-15.03,0-17.76-5.73-17.76-14.33V95.87h-8.94V83.41h8.94V65.47h17.39V83.41z"></path>		<path class="st0" d="M432.57,83.41h16.64v11.46h0.25c3.6-6.73,7.58-13.21,18.13-13.21c1.12,0,2.24,0.12,3.35,0.25v17.69    c-1.49-0.25-3.35-0.25-4.97-0.25c-13.54,0-16.02,8.47-16.02,15.82v34.51h-17.39V83.41z"></path>		<path class="st0" d="M490.79,75.56h-17.39v-16.2h17.39V75.56z M490.79,149.69h-17.39V83.41h17.39V149.69z"></path>		<path class="st0" d="M521.34,149.69h-17.39V95.87h-9.56V83.41h9.56v-5.36c0-13.7,7.45-18.94,19.37-18.94    c5.09,0,7.45,0.12,8.94,0.25v14.08h-4.84c-5.96,0-6.08,1.87-6.08,7.35v2.62h11.3v12.46h-11.3V149.69z"></path>		<path class="st0" d="M589.89,136.73c0,7.85,1.74,9.59,3.85,10.34v2.62h-18.75c-0.99-3.11-1.24-4.11-1.61-7.85    c-3.97,4.11-9.56,9.59-21.36,9.59c-9.93,0-20.12-5.61-20.12-19.31c0-12.96,8.2-19.56,19.25-21.18l15.65-2.37    c2.73-0.37,6.08-1.49,6.08-5.23c0-7.35-6.95-7.72-11.42-7.72c-8.69,0-10.18,5.36-10.68,9.22h-16.76    c1.99-20.31,16.02-23.17,29.56-23.17c9.31,0,26.33,2.87,26.33,19.18V136.73z M572.88,117.42c-1.74,1.37-4.59,2.49-11.8,3.61    c-6.46,1.12-11.8,2.74-11.8,9.97c0,6.1,4.72,7.97,8.07,7.97c7.7,0,15.52-5,15.52-13.08V117.42z"></path>		<path class="st0" d="M599.08,83.41h16.64v11.46h0.25c3.6-6.73,7.57-13.21,18.13-13.21c1.12,0,2.24,0.12,3.36,0.25v17.69    c-1.49-0.25-3.36-0.25-4.97-0.25c-13.54,0-16.02,8.47-16.02,15.82v34.51h-17.39V83.41z"></path>		<path class="st0" d="M733.93,149.69h-17.39v-40.24c0-9.84-4.35-13.08-9.44-13.08c-8.69,0-11.8,5.73-11.8,13.58v39.74h-17.39    v-39.86c0-5.61,0-13.45-10.43-13.45c-8.2,0-10.8,5.73-10.8,12.96v40.36H639.3V83.41h16.64v9.72h0.25    c2.24-4.36,7.08-11.46,18.75-11.46c9.56,0,13.91,3.49,18.38,10.59c2.24-3.24,7.08-10.59,17.63-10.59    c12.92,0,22.97,7.6,22.97,22.17V149.69z"></path>		<path class="st0" d="M781,103.59c-0.75-4.24-2.24-8.72-11.68-8.72c-9.44,0-10.68,3.61-10.68,6.48c0,10.46,41.35,2.87,41.35,27.28    c0,19.31-18.63,22.8-28.94,22.8c-15.03,0-31.3-5.23-31.79-22.92h17.88c0,5.61,3.48,9.72,14.4,9.72c8.94,0,11.05-4.36,11.05-6.85    c0-11.09-40.98-2.74-40.98-27.53c0-9.72,6.08-22.17,26.7-22.17c12.92,0,28.31,3.24,29.68,21.93H781z"></path>	</g></g></svg>