<svg xmlns="http://www.w3.org/2000/svg" xmlns:xlink="http://www.w3.org/1999/xlink" width="500" zoomAndPan="magnify" viewBox="0 0 375 374.999991" height="500" preserveAspectRatio="xMidYMid meet" version="1.2"><g id="7a83d79a2c"><path style=" stroke:none;fill-rule:evenodd;fill:#7d0c0a;fill-opacity:1;" d="M 188.320312 14.867188 C 283.105469 14.867188 359.941406 91.703125 359.941406 186.488281 C 359.941406 281.269531 283.105469 358.105469 188.320312 358.105469 C 160.59375 358.105469 134.402344 351.523438 111.222656 339.84375 C 142.644531 314.105469 175.695312 298.425781 195.199219 258.398438 C 211.179688 225.589844 183.269531 205.832031 159.714844 191.53125 C 136.160156 177.230469 133.636719 155.355469 171.914062 127.59375 C 210.191406 99.832031 126.90625 88.898438 126.90625 88.898438 C 126.90625 88.898438 178.222656 89.738281 210.191406 99.832031 C 242.160156 109.929688 233.75 128.4375 216.082031 146.101562 C 198.414062 163.769531 190.882812 179.957031 235.429688 198.261719 C 279.976562 216.566406 291.796875 228.546875 284.222656 259.675781 C 281.363281 271.4375 274.898438 287.640625 267.964844 303.25 C 305.207031 277.800781 329.65625 235 329.65625 186.488281 C 329.65625 108.429688 266.378906 45.152344 188.320312 45.152344 C 110.265625 45.152344 46.988281 108.429688 46.988281 186.488281 C 46.988281 237.757812 74.292969 282.652344 115.152344 307.425781 L 91.390625 328.121094 C 46.292969 297.195312 16.703125 245.300781 16.703125 186.488281 C 16.703125 91.703125 93.539062 14.867188 188.320312 14.867188 Z M 188.320312 14.867188 "/></g></svg>