<?xml version="1.0" encoding="UTF-8" standalone="no"?>
<svg
   version="1.1"
   width="259.20001"
   height="259.20001"
   id="svg18"
   viewBox="0 0 259.20001 259.20001"
   sodipodi:docname="fcb677f88af8a1090259f2ca92d4b1cf.cdr"
   xmlns:inkscape="http://www.inkscape.org/namespaces/inkscape"
   xmlns:sodipodi="http://sodipodi.sourceforge.net/DTD/sodipodi-0.dtd"
   xmlns="http://www.w3.org/2000/svg"
   xmlns:svg="http://www.w3.org/2000/svg">
  <defs
     id="defs22" />
  <sodipodi:namedview
     id="namedview20"
     pagecolor="#ffffff"
     bordercolor="#666666"
     borderopacity="1.0"
     inkscape:pageshadow="2"
     inkscape:pageopacity="0.0"
     inkscape:pagecheckerboard="0" />
  <path
     d="m 37.374,148.1755 h -6.4136 v -3.9083 h 17.412 v 3.9083 h -6.3435 v 17.863 H 37.374 Z m 13.4586,17.863 v -21.7713 h 4.6249 v 21.7713 z m 23.4047,-3.9033 v 3.9033 H 59.9069 v -21.7713 h 13.7993 v 3.8782 h -9.1744 v 5.1209 h 8.6333 v 3.7881 h -8.6333 v 5.0808 z m 15.057,3.9033 -4.2991,-8.2626 h -2.9813 v 8.2626 h -4.5948 v -21.7713 h 8.473 c 1.0573,0 1.9993,0.1102 2.831,0.3307 0.8318,0.2205 1.5183,0.5211 2.0544,0.8969 0.5411,0.3758 0.9871,0.8268 1.3429,1.3579 0.3607,0.5261 0.6162,1.0823 0.7666,1.6635 0.1503,0.5863 0.2255,1.2126 0.2255,1.889 0,2.9764 -1.2527,5.0508 -3.758,6.2233 l 4.9204,9.41 z M 84.394,154.1332 c 1.0973,0 2.0142,-0.2405 2.7608,-0.7215 0.7816,-0.4861 1.1725,-1.3379 1.1725,-2.5505 0,-1.0171 -0.3056,-1.7487 -0.922,-2.1947 -0.6213,-0.4459 -1.5633,-0.6714 -2.836,-0.6714 h -2.5554 v 6.1381 z m 24.1913,11.9053 -4.2991,-8.2626 h -2.9814 v 8.2626 h -4.5947 v -21.7713 h 8.473 c 1.0572,0 1.9993,0.1102 2.831,0.3307 0.8318,0.2205 1.5182,0.5211 2.0544,0.8969 0.5411,0.3758 0.9871,0.8268 1.3428,1.3579 0.3608,0.5261 0.6163,1.0823 0.7667,1.6635 0.1503,0.5863 0.2254,1.2126 0.2254,1.889 0,2.9764 -1.2526,5.0508 -3.758,6.2233 l 4.9205,9.41 z m -4.9004,-11.9053 c 1.0974,0 2.0143,-0.2405 2.7609,-0.7215 0.7816,-0.4861 1.1724,-1.3379 1.1724,-2.5505 0,-1.0171 -0.3056,-1.7487 -0.9219,-2.1947 -0.6213,-0.4459 -1.5633,-0.6714 -2.836,-0.6714 h -2.5555 v 6.1381 z m 30.9758,11.9053 h -5.0808 l -5.4616,-17.412 h -0.1303 l -5.1359,17.412 h -4.7851 l 7.1301,-21.7713 h 5.7723 z"
     style="fill:#3d2113;fill-rule:evenodd"
     id="path2" />
  <path
     d="m 130.2637,144.4873 h 5.2011 l 4.9605,17.2065 h 0.1754 l 4.9605,-17.2065 h 4.7852 l -6.7644,21.7712 h -6.2533 z"
     style="fill:#7d0c0a;fill-rule:evenodd"
     id="path4" />
  <path
     d="m 159.7706,166.6243 c -1.418,0 -2.6957,-0.1804 -3.8231,-0.5412 -1.1324,-0.3607 -2.0844,-0.8668 -2.8611,-1.5182 -0.7816,-0.6514 -1.433,-1.448 -1.9541,-2.38 -0.5262,-0.937 -0.9019,-1.9592 -1.1375,-3.0665 -0.2355,-1.1124 -0.3507,-2.33 -0.3507,-3.6478 0,-1.6385 0.2255,-3.1417 0.6814,-4.5146 0.456,-1.3779 1.1124,-2.5754 1.9793,-3.5976 0.8668,-1.0222 1.9791,-1.8189 3.332,-2.3951 1.3579,-0.5712 2.8962,-0.8568 4.6198,-0.8568 1.7086,0 3.2169,0.2856 4.5197,0.8518 1.3027,0.5662 2.3449,1.3579 3.1266,2.37 0.7816,1.0122 1.3679,2.1646 1.7537,3.4574 0.3858,1.2927 0.5812,2.7107 0.5812,4.259 0,1.7688 -0.2154,3.3621 -0.6463,4.7752 -0.431,1.418 -1.0723,2.6305 -1.9241,3.6477 -0.8518,1.0172 -1.9442,1.7988 -3.282,2.345 -1.3328,0.5411 -2.8711,0.8117 -4.6148,0.8117 z m 0.1754,-3.9183 c 1.7236,0 3.0715,-0.5863 4.0436,-1.7638 0.9771,-1.1725 1.4631,-3.0465 1.4631,-5.6219 0,-2.4552 -0.456,-4.2892 -1.3679,-5.4967 -0.907,-1.2076 -2.2147,-1.8138 -3.9183,-1.8138 -1.8089,0 -3.2219,0.6162 -4.234,1.8438 -1.0122,1.2277 -1.5183,3.0716 -1.5183,5.5268 0,2.5153 0.4811,4.3643 1.4431,5.5468 0.967,1.1875 2.3299,1.7788 4.0887,1.7788 z"
     style="fill:#7d0c0a;fill-rule:evenodd"
     id="path6" />
  <path
     d="m 201.7288,163.5879 c -0.431,0.957 -1.2276,1.7036 -2.3801,2.2397 -1.1525,0.5312 -2.4302,0.7967 -3.8331,0.7967 -1.5935,0 -2.9914,-0.2655 -4.189,-0.8067 -1.1975,-0.5362 -2.1645,-1.2978 -2.8911,-2.2799 -0.7315,-0.987 -1.2727,-2.1295 -1.6234,-3.4323 -0.3508,-1.2977 -0.5261,-2.7558 -0.5261,-4.3742 0,-2.355 0.3908,-4.4044 1.1725,-6.1331 0.7816,-1.7336 1.9741,-3.0815 3.5725,-4.0436 1.6034,-0.967 3.5375,-1.448 5.8073,-1.448 1.2126,0 2.31,0.1403 3.2971,0.4258 0.982,0.2857 1.8589,0.7216 2.6255,1.3129 0.7667,0.5912 1.383,1.3829 1.844,2.37 0.4609,0.9921 0.7315,2.1545 0.8217,3.4974 l -4.3292,0.4109 c -0.0601,-0.6263 -0.1754,-1.1775 -0.3407,-1.6535 -0.1654,-0.476 -0.4109,-0.9119 -0.7316,-1.3128 -0.3257,-0.4009 -0.7616,-0.7065 -1.3078,-0.917 -0.5461,-0.2104 -1.2025,-0.3156 -1.9691,-0.3156 -1.879,0 -3.287,0.6414 -4.234,1.924 -0.942,1.2778 -1.413,3.1067 -1.413,5.4717 0,2.5955 0.4359,4.5046 1.3178,5.7322 0.8819,1.2326 2.2698,1.8439 4.1688,1.8439 1.408,0 2.5054,-0.3608 3.282,-1.0773 0.7767,-0.7215 1.1675,-1.6234 1.1675,-2.7108 v -0.7916 h -3.9634 v -3.3923 h 8.5431 v 11.3341 h -3.3772 z m 26.5113,2.6706 h -5.0809 l -1.8037,-5.2862 H 214.12 l -1.6885,5.2862 h -4.7852 l 7.1301,-21.7712 h 5.7723 z m -10.6727,-17.412 -2.6707,8.428 h 5.5017 l -2.7008,-8.428 z"
     style="fill:#7d0c0a;fill-rule:evenodd"
     id="path8" />
  <path
     d="m 186.2743,162.3552 v 3.9033 h -13.9496 v -21.7712 h 4.6249 v 17.8679 z"
     style="fill:#7d0c0a;fill-rule:evenodd"
     id="path10" />
  <path
     d="m 125.6712,79.6353 c 16.4443,0 29.7751,13.3307 29.7751,29.7751 0,16.4443 -13.3308,29.775 -29.7751,29.775 -4.8107,0 -9.3544,-1.1419 -13.3761,-3.1683 5.4515,-4.4658 11.1855,-7.1857 14.5692,-14.1303 2.7729,-5.6922 -2.0694,-9.1199 -6.156,-11.6012 -4.0867,-2.4812 -4.5248,-6.2761 2.1163,-11.0926 6.641,-4.8165 -7.8086,-6.7138 -7.8086,-6.7138 0,0 8.9033,0.1459 14.4496,1.8973 5.5463,1.7514 4.0869,4.9625 1.0218,8.0276 -3.0651,3.0651 -4.3718,5.8736 3.3568,9.0493 7.7287,3.1756 9.7791,5.2543 8.4655,10.6547 -0.4964,2.0405 -1.6179,4.8519 -2.821,7.5603 6.4615,-4.4158 10.703,-11.8411 10.703,-20.258 0,-13.5423 -10.9782,-24.5205 -24.5205,-24.5205 -13.5422,0 -24.5205,10.9782 -24.5205,24.5205 0,8.8953 4.7369,16.6841 11.8258,20.9822 l -4.1221,3.5902 c -7.8243,-5.3652 -12.9582,-14.3687 -12.9582,-24.5724 0,-16.4444 13.3307,-29.7751 29.775,-29.7751 z"
     style="fill:#7d0c0a;fill-rule:evenodd"
     id="path12" />
  <path
     d="m 99.2985,179.4674 h -0.8062 l -0.5811,-1.7144 h -2.2175 l -0.5692,1.7144 h -0.7396 l 1.9446,-5.7793 h 0.9578 z m -2.5061,-5.1089 -0.923,2.7626 h 1.8581 l -0.9269,-2.7626 z m 7.1909,4.3254 c -0.1037,0.25 -0.3206,0.4589 -0.6491,0.6278 -0.3286,0.169 -0.6931,0.2529 -1.0933,0.2529 -0.4258,0 -0.7983,-0.0706 -1.116,-0.2117 -0.3181,-0.1423 -0.5746,-0.343 -0.7702,-0.6052 -0.1942,-0.2606 -0.3393,-0.5664 -0.4363,-0.9165 -0.0958,-0.3509 -0.1437,-0.7446 -0.1437,-1.1809 0,-0.9723 0.2407,-1.7252 0.7209,-2.2601 0.4801,-0.536 1.1426,-0.8033 1.9873,-0.8033 1.3354,0 2.0483,0.6412 2.1388,1.9208 l -0.705,0.0745 c -0.0493,-0.4669 -0.1916,-0.8116 -0.4283,-1.031 -0.2367,-0.2194 -0.58,-0.3285 -1.0296,-0.3285 -0.6105,0 -1.0839,0.2061 -1.4193,0.6185 -0.3364,0.4136 -0.5054,0.995 -0.5054,1.7465 0,0.3512 0.0306,0.6624 0.0919,0.9337 0.0612,0.2713 0.1451,0.4949 0.2514,0.6718 0.1063,0.1769 0.2381,0.3217 0.3951,0.4348 0.1568,0.1131 0.3272,0.1931 0.5094,0.2407 0.1809,0.0479 0.383,0.072 0.6038,0.072 0.2489,0 0.4748,-0.04 0.6758,-0.1196 0.2007,-0.0814 0.3631,-0.1877 0.4853,-0.3206 0.1224,-0.1318 0.2157,-0.2795 0.2809,-0.4402 0.0649,-0.1611 0.0969,-0.3274 0.0969,-0.4989 v -0.495 h -1.531 v -0.5998 h 2.2281 v 3.0008 h -0.5375 z m 5.3856,0.7835 -1.3247,-2.401 h -1.3022 v 2.401 h -0.7251 v -5.7793 h 1.9794 c 0.2778,0 0.5267,0.0306 0.7447,0.0904 0.2182,0.0598 0.3965,0.1384 0.536,0.2353 0.1383,0.0972 0.2529,0.2143 0.3433,0.3526 0.089,0.1384 0.1516,0.2792 0.1888,0.4269 0.036,0.1463 0.0547,0.3033 0.0547,0.4697 0,0.4176 -0.0987,0.7608 -0.2968,1.0281 -0.1967,0.2674 -0.4708,0.4615 -0.8221,0.5812 l 1.4222,2.5951 z m -1.5509,-3.0167 c 0.4125,0 0.7302,-0.0853 0.9525,-0.2568 0.2219,-0.1715 0.3325,-0.4694 0.3325,-0.8923 0,-0.3926 -0.1211,-0.656 -0.366,-0.7915 -0.2392,-0.1318 -0.5692,-0.1981 -0.9896,-0.1981 h -1.0054 v 2.1387 z m 5.4284,3.1139 c -0.3513,0 -0.669,-0.0479 -0.955,-0.1466 -0.286,-0.0969 -0.5295,-0.2327 -0.7331,-0.4081 -0.2021,-0.1758 -0.371,-0.3873 -0.5079,-0.6359 -0.1358,-0.2474 -0.237,-0.5212 -0.3019,-0.822 -0.0652,-0.3005 -0.0973,-0.6239 -0.0973,-0.9723 0,-0.5774 0.1024,-1.0879 0.3073,-1.5349 0.2061,-0.4471 0.5148,-0.802 0.9298,-1.0642 0.415,-0.2619 0.9071,-0.3937 1.4791,-0.3937 0.343,0 0.6557,0.0493 0.9363,0.1463 0.282,0.0972 0.5227,0.233 0.7197,0.4059 0.1967,0.1729 0.3631,0.379 0.4961,0.6211 0.1343,0.242 0.2327,0.5054 0.2965,0.7914 0.064,0.2846 0.0958,0.5904 0.0958,0.915 0,0.9564 -0.2288,1.7119 -0.6863,2.2666 -0.4564,0.5547 -1.1174,0.8314 -1.9791,0.8314 z m -1.325,-1.2464 c 0.3354,0.4003 0.7901,0.5998 1.3635,0.5998 0.5746,0 1.0307,-0.1995 1.37,-0.5998 0.339,-0.4005 0.508,-0.9935 0.508,-1.781 0,-0.7489 -0.1608,-1.3195 -0.4842,-1.7133 -0.3231,-0.3937 -0.7687,-0.5904 -1.3354,-0.5904 -0.5785,0 -1.044,0.2021 -1.3966,0.6063 -0.3524,0.4045 -0.5281,0.9816 -0.5281,1.732 0,0.7633 0.1678,1.3459 0.5028,1.7464 z m 5.842,-3.695 v 4.8442 h -0.6866 v -5.7793 h 0.9632 l 2.7706,4.7976 v -4.7976 h 0.6783 v 5.7793 h -0.8844 z m 8.7361,4.2058 v 0.6384 h -3.4798 v -5.7793 h 3.3746 v 0.6398 h -2.6416 v 1.9085 h 2.482 v 0.6359 h -2.482 v 1.9567 z m 4.9453,-0.1451 c -0.1038,0.25 -0.3206,0.4589 -0.6491,0.6278 -0.3286,0.169 -0.6931,0.2529 -1.0934,0.2529 -0.4257,0 -0.7982,-0.0706 -1.116,-0.2117 -0.318,-0.1423 -0.5746,-0.343 -0.7701,-0.6052 -0.1942,-0.2606 -0.3393,-0.5664 -0.4363,-0.9165 -0.0958,-0.3509 -0.1437,-0.7446 -0.1437,-1.1809 0,-0.9723 0.2407,-1.7252 0.7208,-2.2601 0.4802,-0.536 1.1427,-0.8033 1.9874,-0.8033 1.3354,0 2.0483,0.6412 2.1387,1.9208 l -0.7049,0.0745 c -0.0493,-0.4669 -0.1916,-0.8116 -0.4283,-1.031 -0.2367,-0.2194 -0.58,-0.3285 -1.0296,-0.3285 -0.6106,0 -1.084,0.2061 -1.4193,0.6185 -0.3365,0.4136 -0.5054,0.995 -0.5054,1.7465 0,0.3512 0.0306,0.6624 0.0918,0.9337 0.0613,0.2713 0.1452,0.4949 0.2515,0.6718 0.1063,0.1769 0.2381,0.3217 0.3951,0.4348 0.1568,0.1131 0.3271,0.1931 0.5094,0.2407 0.1809,0.0479 0.383,0.072 0.6038,0.072 0.2489,0 0.4748,-0.04 0.6758,-0.1196 0.2007,-0.0814 0.3631,-0.1877 0.4853,-0.3206 0.1224,-0.1318 0.2157,-0.2795 0.2809,-0.4402 0.0649,-0.1611 0.0969,-0.3274 0.0969,-0.4989 v -0.495 h -1.531 v -0.5998 h 2.228 v 3.0008 h -0.5374 z m 4.259,0.8807 c -0.3512,0 -0.6689,-0.0479 -0.9549,-0.1466 -0.2861,-0.0969 -0.5296,-0.2327 -0.7331,-0.4081 -0.2021,-0.1758 -0.371,-0.3873 -0.508,-0.6359 -0.1357,-0.2474 -0.2369,-0.5212 -0.3018,-0.822 -0.0652,-0.3005 -0.0973,-0.6239 -0.0973,-0.9723 0,-0.5774 0.1024,-1.0879 0.3073,-1.5349 0.2061,-0.4471 0.5148,-0.802 0.9298,-1.0642 0.415,-0.2619 0.9071,-0.3937 1.4791,-0.3937 0.343,0 0.6556,0.0493 0.9363,0.1463 0.282,0.0972 0.5227,0.233 0.7197,0.4059 0.1967,0.1729 0.3631,0.379 0.496,0.6211 0.1344,0.242 0.2328,0.5054 0.2965,0.7914 0.0641,0.2846 0.0959,0.5904 0.0959,0.915 0,0.9564 -0.2288,1.7119 -0.6863,2.2666 -0.4564,0.5547 -1.1174,0.8314 -1.9792,0.8314 z m -1.3249,-1.2464 c 0.3354,0.4003 0.79,0.5998 1.3635,0.5998 0.5746,0 1.0307,-0.1995 1.37,-0.5998 0.339,-0.4005 0.5079,-0.9935 0.5079,-1.781 0,-0.7489 -0.1607,-1.3195 -0.4841,-1.7133 -0.3232,-0.3937 -0.7688,-0.5904 -1.3354,-0.5904 -0.5786,0 -1.044,0.2021 -1.3966,0.6063 -0.3524,0.4045 -0.5281,0.9816 -0.5281,1.732 0,0.7633 0.1678,1.3459 0.5028,1.7464 z m 7.3262,1.2464 c -0.4442,0 -0.8311,-0.0692 -1.1611,-0.2089 -0.33,-0.1383 -0.5947,-0.3379 -0.7929,-0.5973 -0.1995,-0.2608 -0.3458,-0.5641 -0.4427,-0.9099 -0.0958,-0.347 -0.1437,-0.7407 -0.1437,-1.1823 0,-0.9644 0.242,-1.7187 0.7262,-2.2626 0.4856,-0.544 1.1398,-0.8167 1.9658,-0.8167 0.6106,0 1.1081,0.1531 1.4925,0.4603 0.3951,0.3167 0.612,0.8088 0.6517,1.4763 l -0.6863,0.0746 c -0.0544,-0.4629 -0.1967,-0.8073 -0.4269,-1.035 -0.2302,-0.2273 -0.576,-0.3404 -1.0389,-0.3404 -0.6052,0 -1.0775,0.201 -1.4165,0.6052 -0.3379,0.4045 -0.5082,0.9964 -0.5082,1.7756 0,0.8076 0.1556,1.3981 0.4657,1.7705 0.3112,0.3737 0.7648,0.5599 1.362,0.5599 0.4496,0 0.7966,-0.0998 1.0401,-0.2991 0.2446,-0.1984 0.4135,-0.5042 0.5068,-0.9164 l 0.6625,0.1355 c -0.036,0.25 -0.1066,0.4737 -0.2118,0.6704 -0.1049,0.197 -0.2299,0.3606 -0.375,0.4895 -0.1437,0.1276 -0.3098,0.2342 -0.4961,0.3192 -0.1876,0.0839 -0.3764,0.1437 -0.5692,0.1797 -0.1916,0.0346 -0.3937,0.0519 -0.604,0.0519 z m 3.3505,-0.0972 v -5.7793 h 0.7331 v 5.7793 z m 4.4893,0.0972 c -0.3513,0 -0.669,-0.0479 -0.955,-0.1466 -0.2861,-0.0969 -0.5296,-0.2327 -0.7331,-0.4081 -0.2021,-0.1758 -0.371,-0.3873 -0.5079,-0.6359 -0.1358,-0.2474 -0.237,-0.5212 -0.3019,-0.822 -0.0652,-0.3005 -0.0973,-0.6239 -0.0973,-0.9723 0,-0.5774 0.1024,-1.0879 0.3073,-1.5349 0.2061,-0.4471 0.5148,-0.802 0.9298,-1.0642 0.415,-0.2619 0.9071,-0.3937 1.4791,-0.3937 0.343,0 0.6556,0.0493 0.9363,0.1463 0.282,0.0972 0.5227,0.233 0.7197,0.4059 0.1967,0.1729 0.3631,0.379 0.4961,0.6211 0.1343,0.242 0.2327,0.5054 0.2965,0.7914 0.064,0.2846 0.0958,0.5904 0.0958,0.915 0,0.9564 -0.2288,1.7119 -0.6863,2.2666 -0.4564,0.5547 -1.1174,0.8314 -1.9791,0.8314 z m -1.325,-1.2464 c 0.3354,0.4003 0.7901,0.5998 1.3635,0.5998 0.5746,0 1.0307,-0.1995 1.37,-0.5998 0.339,-0.4005 0.508,-0.9935 0.508,-1.781 0,-0.7489 -0.1608,-1.3195 -0.4842,-1.7133 -0.3232,-0.3937 -0.7688,-0.5904 -1.3354,-0.5904 -0.5786,0 -1.044,0.2021 -1.3966,0.6063 -0.3524,0.4045 -0.5281,0.9816 -0.5281,1.732 0,0.7633 0.1678,1.3459 0.5028,1.7464 z m 6.7729,-4.1114 c -0.4176,0 -0.7234,0.0811 -0.9151,0.2447 -0.1927,0.1649 -0.2885,0.3843 -0.2885,0.6599 0,0.1315 0.0252,0.2511 0.0757,0.3577 0.0507,0.1063 0.1145,0.1956 0.193,0.2673 0.0771,0.0706 0.178,0.1369 0.3019,0.1982 0.1236,0.0612 0.2446,0.1116 0.3645,0.1516 0.1196,0.0414 0.2566,0.085 0.4122,0.1358 0.0133,0.002 0.0241,0.004 0.032,0.006 0.4467,0.1358 0.758,0.2475 0.9349,0.3353 0.4203,0.2087 0.6811,0.4987 0.7795,0.8737 0.0332,0.1292 0.0505,0.2715 0.0505,0.4243 0,0.294 -0.0559,0.5522 -0.1676,0.7756 -0.1117,0.2234 -0.2633,0.4017 -0.4561,0.5335 -0.1916,0.1329 -0.407,0.2313 -0.6466,0.2965 -0.2392,0.0652 -0.496,0.0972 -0.7713,0.0972 -0.6213,0 -1.1094,-0.1332 -1.4658,-0.3991 -0.3551,-0.2662 -0.5694,-0.6891 -0.6426,-1.2691 l 0.701,-0.1049 c 0.0321,0.1355 0.0667,0.254 0.1052,0.3552 0.04,0.1009 0.0958,0.2047 0.1675,0.3098 0.0732,0.1052 0.1585,0.1902 0.2554,0.2566 0.0973,0.0666 0.2223,0.121 0.3725,0.1638 0.1502,0.0425 0.322,0.0638 0.5148,0.0638 0.1689,0 0.3245,-0.0147 0.4668,-0.0465 0.1438,-0.0306 0.2781,-0.0813 0.4057,-0.1491 0.1278,-0.0692 0.2273,-0.1704 0.3019,-0.3033 0.0745,-0.1315 0.1117,-0.29 0.1117,-0.4748 0,-0.1012 -0.0145,-0.1942 -0.0411,-0.2781 -0.0281,-0.085 -0.0627,-0.1596 -0.1038,-0.2219 -0.0414,-0.0641 -0.0984,-0.1239 -0.1715,-0.1798 -0.0731,-0.0558 -0.1423,-0.1023 -0.2089,-0.1383 -0.0652,-0.0357 -0.1517,-0.0745 -0.258,-0.1131 -0.1065,-0.0385 -0.1995,-0.0703 -0.2766,-0.093 -0.0785,-0.0241 -0.1783,-0.0533 -0.3008,-0.0864 -0.4521,-0.125 -0.7741,-0.2356 -0.9669,-0.3311 -0.4257,-0.2103 -0.6837,-0.523 -0.7755,-0.9352 -0.0278,-0.1278 -0.0425,-0.2633 -0.0425,-0.4096 0,-0.4855 0.1822,-0.8728 0.5479,-1.1613 0.3645,-0.2872 0.83,-0.4323 1.3966,-0.4323 0.2648,0 0.5029,0.0281 0.7118,0.0825 0.2086,0.0547 0.4003,0.1423 0.5717,0.2622 0.173,0.121 0.3127,0.2897 0.4179,0.5054 0.1049,0.2154 0.1715,0.4734 0.2007,0.7753 l -0.6863,0.0811 c -0.0198,-0.1557 -0.0533,-0.2912 -0.0972,-0.4082 -0.0437,-0.1171 -0.1103,-0.2302 -0.1968,-0.3393 -0.0864,-0.1089 -0.2075,-0.1928 -0.3617,-0.2512 -0.1556,-0.0587 -0.3393,-0.0879 -0.5521,-0.0879 z"
     style="fill:#3d2113;fill-rule:evenodd"
     id="path14" />
  <path
     d="M 0,0 V 259.2 H 259.2 V 0 Z"
     style="fill:none"
     id="path16" />
</svg>
